<svg width="128" height="128" viewBox="0 0 128 128" fill="none" xmlns="http://www.w3.org/2000/svg">
  <!-- Background gradient -->
  <defs>
    <linearGradient id="grad" x1="0%" y1="0%" x2="100%" y2="100%">
      <stop offset="0%" style="stop-color:#667eea;stop-opacity:1" />
      <stop offset="100%" style="stop-color:#764ba2;stop-opacity:1" />
    </linearGradient>
  </defs>

  <!-- Rounded square background -->
  <rect width="128" height="128" rx="24" fill="url(#grad)"/>

  <!-- Three people icons (simplified) -->
  <!-- Person 1 -->
  <circle cx="40" cy="50" r="12" fill="white" opacity="0.9"/>
  <path d="M 25 80 Q 25 65 40 65 Q 55 65 55 80 L 55 85 L 25 85 Z" fill="white" opacity="0.9"/>

  <!-- Person 2 (center, larger) -->
  <circle cx="64" cy="45" r="14" fill="white"/>
  <path d="M 47 85 Q 47 68 64 68 Q 81 68 81 85 L 81 90 L 47 90 Z" fill="white"/>

  <!-- Person 3 -->
  <circle cx="88" cy="50" r="12" fill="white" opacity="0.9"/>
  <path d="M 73 80 Q 73 65 88 65 Q 103 65 103 80 L 103 85 L 73 85 Z" fill="white" opacity="0.9"/>

  <!-- Check mark on center person -->
  <path d="M 58 48 L 62 52 L 70 44" stroke="#10b981" stroke-width="3" stroke-linecap="round" fill="none"/>

  <!-- X mark on right person -->
  <path d="M 85 52 L 91 58 M 91 52 L 85 58" stroke="#ef4444" stroke-width="2.5" stroke-linecap="round"/>
</svg>
